<svg xmlns="http://www.w3.org/2000/svg" viewBox="0 0 790.77 339.87"><g id="Vordergrund"><rect x="239.32" y="210.19" width="48.04" height="48.07" transform="translate(-113.9 122.54) rotate(-45)" fill="#b2b2b2"/><path d="M263.34,234.23" transform="translate(-25.41 -132.27)" fill="#b2b2b2"/><rect x="171.34" y="142.21" width="48.04" height="48.07" transform="translate(-85.74 54.57) rotate(-45)" fill="#b2b2b2"/><path d="M195.36,166.24" transform="translate(-25.41 -132.27)" fill="#b2b2b2"/><rect x="239.32" y="346.15" width="48.04" height="48.07" transform="translate(-210.04 162.35) rotate(-45)" fill="#b2b2b2"/><path d="M263.34,370.19" transform="translate(-25.41 -132.27)" fill="#b2b2b2"/><rect x="171.34" y="278.17" width="48.04" height="48.07" transform="translate(-181.88 94.37) rotate(-45)" fill="#b2b2b2"/><path d="M195.36,302.21" transform="translate(-25.41 -132.27)" fill="#b2b2b2"/><rect x="103.36" y="210.19" width="48.04" height="48.07" transform="translate(-153.73 26.41) rotate(-45)" fill="#b2b2b2"/><path d="M127.38,234.23" transform="translate(-25.41 -132.27)" fill="#b2b2b2"/><rect x="171.34" y="414.13" width="48.04" height="48.07" transform="translate(-278.02 134.21) rotate(-45)" fill="#b2b2b2"/><path d="M195.36,438.17" transform="translate(-25.41 -132.27)" fill="#b2b2b2"/><rect x="103.36" y="346.15" width="48.04" height="48.07" transform="translate(-249.86 66.22) rotate(-45)" fill="#b2b2b2"/><path d="M127.38,370.19" transform="translate(-25.41 -132.27)" fill="#b2b2b2"/><rect x="35.38" y="278.17" width="48.04" height="48.07" transform="translate(-221.7 -1.76) rotate(-45)" fill="#b2b2b2"/><path d="M59.4,302.21" transform="translate(-25.41 -132.27)" fill="#b2b2b2"/><path d="M573.8,275.53v51.71h28.06V275.53ZM544,246.77H589c22.81.12,43.62.5,44.19,28.63C633.62,295.06,620,298.9,620,298.9s16.59,3.67,16.23,26.93c-.47,31.15-31.16,29.31-42.17,29.34l-50.13,0Z" transform="translate(-25.41 -132.27)" fill="#164194" fill-rule="evenodd"/><rect x="643.33" y="114.48" width="31.72" height="108.45" fill="#164194"/><path d="M414.58,246.76h43.83c25.94.07,43.62,2,45.49,28.7a50.45,50.45,0,0,1-7.25,29.14l23.13,43.87L493,362.67l-22-42.14V275.79H445.8V355.2H414.58Z" transform="translate(-25.41 -132.27)" fill="#164194" fill-rule="evenodd"/><path d="M296.33,301.52,329,334.17l32.65-32.65L329,268.87Zm-25.2-.09c0-31.37,26.6-56.8,58-56.8s58,25.43,58,56.8-26.6,56.8-58,56.8S271.12,332.79,271.12,301.42Z" transform="translate(-25.41 -132.27)" fill="#164194" fill-rule="evenodd"/><path d="M785.79,285.1c19.56-.81,30.42,12.1,30.39,31.74,0,24.91-13.77,38-31.81,38.36H733V326.1h52.8Z" transform="translate(-25.41 -132.27)" fill="#164194" fill-rule="evenodd"/><path d="M735.27,299.32c-3.05-5-5-15.16,2.62-30.77L751.62,239l28,13-15.59,33.84v25.83S744,313.53,735.27,299.32Z" transform="translate(-25.41 -132.27)" fill="#164194" fill-rule="evenodd"/></g></svg>